<?xml version="1.0" encoding="UTF-8"?>
<svg id="Design" xmlns="http://www.w3.org/2000/svg" version="1.1" viewBox="0 0 118.8 123.66">
  <!-- Generator: Adobe Illustrator 30.2.1, SVG Export Plug-In . SVG Version: 2.1.1 Build 1)  -->
  <defs>
    <style>
      .st0 {
        fill: #1592c3;
      }
    </style>
  </defs>
  <path class="st0" d="M61.01,46.95v19.9c0,2.34-1.87,4.45-4.45,4.45-2.34,0-4.45-1.87-4.45-4.45v-19.9c0-2.34,1.87-4.45,4.45-4.45,2.58.23,4.45,2.11,4.45,4.45"/>
  <path d="M90.75,66.86c0-9.37-3.75-17.8-9.84-23.89-6.32-6.09-14.75-10.07-24.12-10.07s-17.8,3.75-23.89,9.84-9.84,14.52-9.84,23.89,3.75,17.8,9.84,23.89,14.52,9.84,23.89,9.84,17.8-3.75,23.89-9.84c6.32-5.62,10.07-14.28,10.07-23.65M103.39,29.63c1.64,1.64,1.64,4.45,0,6.09s-4.45,1.64-6.09,0l-1.64-1.64-6.09,5.85c6.09,7.26,9.6,16.63,9.6,26.93,0,23.42-18.97,42.62-42.62,42.62S14.17,90.51,14.17,66.86c0-22.01,16.86-40.04,38.17-42.39v-5.85c0-2.34,1.87-4.45,4.45-4.45,2.34,0,4.45,1.87,4.45,4.45v6.09c8.43.94,16.16,4.22,22.48,9.37l6.09-5.85-1.64-1.64c-1.64-1.64-1.64-4.45,0-6.09,1.64-1.64,4.45-1.64,6.09,0l4.68,4.68s4.45,4.45,4.45,4.45Z"/>
</svg>